<svg xmlns="http://www.w3.org/2000/svg" width="128.744" height="28.768" viewBox="0 0 128.744 28.768"><defs><style>.a{fill:#1a1818;}.b{fill:#e82425;}</style></defs><g transform="translate(1.007 -6)"><g transform="translate(-1.007 6)"><path d="M25.042,110.487h9.325v2.67h-3v7.5H28.037v-7.5H25.042Z" transform="translate(-25.042 -100.935)"/><path d="M91.065,119.264v-7.4H94v7.4Zm0-10.442H94v2.091H91.065Z" transform="translate(-80.427 -99.538)"/><path d="M119.018,126.572H121.7v1.159a2.9,2.9,0,0,1,2.5-1.371c1.95,0,2.868,1.144,2.868,3.179v4.437h-2.939v-3.915c0-.734-.2-1.384-1.031-1.384-.9,0-1.144.58-1.144,1.526v3.773h-2.939Z" transform="translate(-103.876 -114.25)"/><path d="M178.736,119.264v-7.4h2.939v7.4Zm0-10.442h2.939v2.091h-2.939Z" transform="translate(-153.972 -99.538)"/><path d="M214.741,135.079h-2.727v-1.088a2.824,2.824,0,0,1-2.67,1.3c-1.611,0-2.657-.989-2.657-3.108v-4.507h2.939v4c0,1.018.353,1.343,1.06,1.343.847,0,1.116-.636,1.116-1.781v-3.561h2.938Z" transform="translate(-177.419 -115.354)"/><path d="M266.663,131.673a.818.818,0,0,0,.311.677,1.18,1.18,0,0,0,.72.226c.452,0,.932-.141.932-.663,0-1.187-4.535-.24-4.535-3.109,0-1.894,1.964-2.444,3.5-2.444,1.611,0,3.5.367,3.674,2.331H268.6a.769.769,0,0,0-.283-.537.926.926,0,0,0-.593-.184c-.508,0-.833.156-.833.523,0,1.031,4.677.339,4.677,3.108,0,1.54-1.272,2.586-3.985,2.586-1.7,0-3.56-.523-3.716-2.515Z" transform="translate(-225.385 -114.25)"/><path d="M569.694,113.715a5.067,5.067,0,0,1-5.34,5.411c-3.193,0-5.327-1.978-5.327-5.44a5.334,5.334,0,0,1,10.667.028Zm-7.332,0c0,1.3.4,2.925,1.992,2.925,1.441,0,2.007-1.243,2.007-2.925,0-1.384-.566-2.854-2.035-2.812C562.814,110.9,562.362,112.429,562.362,113.715Z" transform="translate(-472.987 -99.198)"/><path d="M634.077,120.257V110.084h2.938v10.173Z" transform="translate(-535.945 -100.597)"/><path d="M663.507,131.267a.821.821,0,0,0,.31.678,1.183,1.183,0,0,0,.722.226c.452,0,.932-.141.932-.663,0-1.187-4.535-.241-4.535-3.109,0-1.893,1.964-2.444,3.5-2.444,1.611,0,3.5.368,3.674,2.332h-2.67a.77.77,0,0,0-.282-.537.93.93,0,0,0-.594-.183c-.509,0-.834.155-.834.523,0,1.031,4.677.339,4.677,3.108,0,1.54-1.272,2.587-3.986,2.587-1.7,0-3.56-.524-3.716-2.516Z" transform="translate(-558.285 -113.911)"/><path d="M717.043,130.533a1.426,1.426,0,0,0,1.455,1.454,1.174,1.174,0,0,0,1.1-.65h2.811c-.508,1.836-2.373,2.445-4.1,2.445-2.374,0-4.21-1.357-4.21-3.844a3.922,3.922,0,0,1,4.2-3.985,4.163,4.163,0,0,1,4.352,4.578Zm2.67-1.5a1.332,1.332,0,0,0-1.3-1.286,1.221,1.221,0,0,0-1.37,1.286Z" transform="translate(-603.078 -113.911)"/><path d="M774.077,126.167h2.685v1.159a2.9,2.9,0,0,1,2.5-1.37c1.951,0,2.868,1.144,2.868,3.179v4.437h-2.938v-3.914c0-.734-.2-1.385-1.031-1.385-.9,0-1.144.58-1.144,1.526v3.772h-2.94Z" transform="translate(-653.387 -113.911)"/><path class="a" d="M384.639,94.482c0,4.921-5.542,8.91-12.379,8.91s-12.379-3.989-12.379-8.91,5.542-8.91,12.379-8.91S384.639,89.561,384.639,94.482ZM372.23,89.639c-4.541,0-8.223,2.142-8.223,4.784s3.681,4.784,8.223,4.784,8.223-2.142,8.223-4.784S376.771,89.639,372.23,89.639Z" transform="translate(-305.929 -80.035)"/><g transform="translate(49.592)"><path class="b" d="M381.985,197.841a15.347,15.347,0,0,1-8.761-.14v2.9H366.5v2.26H388.71V200.6h-6.725Z" transform="translate(-361.073 -174.096)"/><path class="b" d="M332.824,51.2V59.57h2.261V53.8h9.891v2.681a15.347,15.347,0,0,1,8.76-.14V53.8h9.722V59.57h2.26V51.2Z" transform="translate(-332.824 -51.205)"/></g><path class="b" d="M408.868,118.323v6.048a11.683,11.683,0,0,0,8.761-.038v-5.971a11.683,11.683,0,0,0-8.761-.038Z" transform="translate(-347.023 -106.81)"/></g></g></svg>